<?xml version="1.0" encoding="utf-8"?>
<svg xmlns="http://www.w3.org/2000/svg" width="1024" height="1024" viewBox="0 0 1024 1024">
  <g>
    <rect x="96" y="80" width="832" height="832" rx="192" ry="192" fill="#3F37C9"/>
    <rect x="108" y="92" width="808" height="808" rx="184" ry="184" fill="none" stroke="#FFFFFF" stroke-opacity="0.24" stroke-width="4"/>
  </g>
  <g transform="translate(512 512) scale(0.94) translate(-511 -504)">
  <path fill="#FFFFFF" d="M507.73 186.12C512.825 185.717 517.04 185.972 521.881 187.845C529.138 190.699 534.927 196.376 537.923 203.575C541.109 211.058 541.096 219.517 537.887 226.99C534.462 235.038 528.601 239.921 520.644 243.092C521.339 253.249 521.134 276.54 520.557 286.719C547.41 261.627 587.278 267.971 620.191 254.257C638.128 246.783 640.742 241.892 654.622 232.005C654.487 263.641 641.058 287.21 609.184 295.224C633.997 297.562 642.655 294.187 662.582 280.144C661.621 287.482 661.014 292.534 657.737 299.286C649.813 315.619 635.041 322.025 617.694 322.098C633.671 330.484 647.834 339.462 661.383 351.531C704.542 389.975 727.546 443.357 731.309 500.597C731.895 509.521 731.663 517.241 731.744 526.026C731.895 544.15 731.924 562.274 731.832 580.399L731.817 617.162C731.847 625.322 732.071 635.403 731.518 643.501C731.212 647.762 730.468 651.979 729.296 656.086C722.813 679.402 708.69 700.087 692.911 718.069L692.67 716.936C689.942 703.528 682.853 699.291 671.266 694.07C655.349 686.899 639.545 679.036 624.167 670.757C644.324 674.359 663.946 683.395 684.213 672.17C693.475 667.041 706.205 653.749 707.798 643.507C709.889 630.065 708.788 607.432 708.775 593.196L708.853 551.011C708.894 539.851 709.174 525.405 707.351 514.464C705.176 500.872 700.336 487.843 693.11 476.127C671.459 441.34 629.221 427.296 592.034 446.272C588.334 448.16 585.094 450.175 581.587 452.384C581.421 458.615 583.131 479.652 580.078 483.889C577.059 488.077 517.424 518.731 511.728 519.032C509.618 519.144 506.241 517.569 504.285 516.716C496.83 513.465 446.941 488.481 443.444 484.77C439.909 481.018 441.474 458.426 441.54 452.606L436.297 449.201C435.009 448.44 433.709 447.7 432.397 446.981C392.79 425.412 348.185 442.276 327.254 480.94C321.145 492.247 317.096 504.55 315.296 517.275C313.051 533.165 314.618 559.837 314.275 576.828C314.43 596.574 313.827 616.748 314.332 636.449C314.74 652.394 326.775 665.114 339.845 672.373C356.33 681.529 380.501 676.028 397.352 670.633C380.668 681.464 363.049 688.534 345.503 697.556C336.197 702.341 332.898 708.279 330.165 717.932C313.848 701.348 297.686 674.244 292.42 651.368C291.462 647.207 291.324 642.299 291.275 638.041L291.134 558.883C291.034 539.895 290.628 517.471 291.807 498.637C294.912 449.047 315.361 398.516 350.522 362.688C390.692 321.867 445.38 298.596 502.648 297.956L502.598 395.423C493.045 398.889 468.602 414.196 459.287 420.265C459.978 436.756 459.1 456.499 459.276 473.398C463.247 474.885 470.752 479.213 474.757 481.195C486.88 487.193 499.478 494.578 511.816 500.039C528.338 491.547 547.031 481.267 563.472 473.327L563.528 420.078C549.885 412.791 536.211 400.828 520.47 395.497C519.959 388.528 520.29 380.54 520.289 373.441L520.317 333.807C520.354 325.467 520.331 317.126 520.249 308.785C520.189 303.4 519.877 296.697 520.403 291.475C514.501 291.447 508.044 291.529 502.183 292.19C502.724 276.587 502.361 259.035 502.437 243.278C492.38 238.956 485.672 232.024 483.61 221.012C482.065 212.932 483.893 204.572 488.668 197.874C493.185 191.555 500.055 187.319 507.73 186.12Z"/>
  <path fill="#FFFFFF" d="M510.931 616.243C524.824 615.918 541.896 619.613 554.094 626.151C566.132 632.604 576.807 643.723 587.075 652.77C594.69 659.533 602.796 665.721 611.327 671.283C619.842 676.909 628.644 682.088 637.697 686.798C648.688 692.508 663.015 698.072 673.201 704.134C704.983 723.048 654.187 745.295 641.23 754.247C613.519 773.39 600.584 777.252 569.042 765.342C555.286 760.149 527.171 753.27 512.503 752.026C492.071 753.117 471.854 759.888 452.383 765.866C444.695 768.226 436.723 771.353 428.704 772.305C422.807 773.006 417.1 772.31 411.496 770.369C396.865 765.301 382.823 754.95 369.821 746.66C362.57 742.037 354.823 737.606 348.125 732.226C344.099 728.992 340.31 724.885 339.879 719.49C339.565 715.548 340.949 711.904 343.575 708.984C349.268 702.652 375.732 691.623 385.017 686.747C395.155 681.489 405.027 675.733 414.597 669.501C422.692 664.112 430.377 658.13 437.587 651.604C463.658 628.395 473.405 617.723 510.931 616.243ZM487.988 685.588C505.531 678.688 485.44 660.588 476.384 658.997C462.94 663.262 469.907 673.308 477.096 679.641C480.67 682.79 482.991 685.578 487.988 685.588ZM538.295 685.431C547.617 681.518 566.041 660.648 544.994 659.109C538.281 661.423 520.441 678.092 532.365 684.239C534.191 685.18 536.266 685.517 538.295 685.431Z"/>
  <path fill="#FFFFFF" d="M646.706 762.98L646.77 763.959C644.716 768.032 642.017 771.599 638.681 774.746C607.474 804.182 554.791 821.255 512.712 821.341C469.267 821.43 413.853 804.306 383.184 773.402C380.021 770.027 377.377 766.138 374.876 762.266C377.096 763.611 379.295 765.273 381.477 766.78C392.51 774.442 411.92 787.527 426.361 785.814C448.297 783.213 473.075 772.829 495.335 768.987C500.816 768.041 506.404 766.681 511.889 767.035C530.857 768.26 549.477 774.507 567.823 779.219C575.904 781.3 582.88 784.197 591.146 785.193C612.156 787.934 630.928 775.32 646.706 762.98Z"/>
  <path fill="#FFFFFF" d="M613.892 534.665C634.605 531.454 648.186 550.969 651.197 568.986C654.722 590.074 645.09 618.043 621.559 621.705C613.897 621.816 608.325 621.333 601.68 616.801C574.193 598.059 577.76 541.242 613.892 534.665ZM609.748 571.887C615.385 571.511 619.682 566.688 619.408 561.045C619.134 555.402 614.389 551.018 608.742 551.191C604.997 551.305 601.606 553.432 599.872 556.753C598.138 560.074 598.333 564.073 600.38 567.211C602.428 570.348 606.009 572.136 609.748 571.887Z"/>
  <path fill="#FFFFFF" d="M403.228 534.666C440.181 532.329 448.857 587.15 428.969 609.787C423.395 616.132 417.377 620.727 408.754 621.615C406.045 621.664 402.17 621.863 399.623 621.202C360.357 611.002 361.719 540.272 403.228 534.666ZM416.743 571.418C422.272 570.033 425.644 564.445 424.293 558.908C422.942 553.372 417.373 549.965 411.829 551.284C406.237 552.613 402.795 558.239 404.158 563.823C405.521 569.406 411.168 572.814 416.743 571.418Z"/>
  <path fill="#FFFFFF" d="M739.512 525.992C770.759 526.247 765.456 546.857 765.546 569.484L765.587 627.404C765.586 631.207 765.481 635.385 765.587 639.163C766.03 655.011 766.07 666.917 750.837 676.122C743.162 679.834 736.579 680.539 728.23 680.642C742.793 651.566 739.61 639.598 739.577 608.25L739.512 525.992Z"/>
  <path fill="#FFFFFF" d="M279.197 526.211L282.263 526.119C283.691 526.941 283.233 526.981 283.238 528.891C283.313 562.284 282.966 595.679 283.162 629.072C283.209 637.255 282.94 645.578 284.464 653.64C286.285 663.275 290.727 671.742 294.716 680.569C287.646 680.676 282.97 680.227 276.242 678.071C255.119 669.348 257.176 653.61 257.29 634.611L257.353 599.186C257.378 588.254 257.327 577.323 257.2 566.393C257.023 547.687 253.916 528.402 279.197 526.211Z"/>
  <path fill="#FFFFFF" d="M772.964 552.91C783.26 552.858 795.578 551.282 804.034 559.392C816.605 571.449 809.798 597.081 811.438 613.27C812.526 624.025 811.696 634.94 804.242 642.929C794.771 650.682 784.918 649.397 773.239 649.403C772.693 638.221 772.929 624.579 772.915 613.346L772.964 552.91Z"/>
  <path fill="#FFFFFF" d="M230.789 553.066C236.639 552.692 243.571 552.955 249.509 553.033C250.208 583.59 249.823 618.707 249.504 649.519C243.326 649.262 237.501 649.688 231.376 648.943C228.445 648.246 225.703 647.449 223.039 645.98C217.89 643.138 214.057 639.006 212.47 633.263C210.612 626.538 210.463 581.205 211.507 573.245C211.922 570.088 212.71 567.223 214.401 564.492C218.005 558.669 224.191 554.621 230.789 553.066Z"/>
  <path fill="#FFFFFF" d="M510.005 420.728C522.804 420.007 533.806 429.709 534.692 442.498C535.579 455.287 526.021 466.413 513.244 467.465C504.831 468.158 496.695 464.271 491.949 457.29C487.203 450.309 486.579 441.314 490.317 433.745C494.055 426.176 501.576 421.203 510.005 420.728Z"/>
  <path fill="#FFFFFF" d="M238.333 470.627C240.734 470.373 243.464 470.762 245.753 471.482C249.869 472.749 253.262 475.689 255.103 479.582C257.07 483.893 257.196 488.819 255.45 493.225C253.6 497.917 250.599 500.557 246.15 502.609C246.442 507.687 246.783 544.433 245.394 546.231L242.98 546.402L233.385 546.499C232.592 534.762 233.318 522.555 233.049 510.786C232.99 508.173 233.053 505.463 233.3 502.863L232.923 502.629L232.3 502.232C231.612 501.798 230.948 501.393 230.278 500.923C226.572 498.299 224.07 494.3 223.33 489.819C221.621 479.249 228.282 472.245 238.333 470.627Z"/>
  <path fill="#FFFFFF" d="M780.403 470.628C799.439 468.255 807.552 491.693 789.372 502.885C789.69 517.268 789.17 531.903 789.406 546.324L784.625 546.423L776.428 546.457C776.052 534.801 775.735 514.357 776.432 502.991C771.639 500.031 768.31 496.939 766.773 491.172C765.537 486.651 766.242 481.819 768.717 477.839C771.594 473.302 775.457 471.687 780.403 470.628Z"/>
  </g>
</svg>
